<mxfile host="65bd71144e">
    <diagram id="xzW9w4tnsMkWc0-EfFGB" name="General">
        <mxGraphModel dx="1047" dy="782" grid="1" gridSize="10" guides="1" tooltips="1" connect="1" arrows="1" fold="1" page="1" pageScale="1" pageWidth="827" pageHeight="1169" math="0" shadow="0">
            <root>
                <mxCell id="0"/>
                <mxCell id="1" parent="0"/>
                <mxCell id="2" value="Extractor" style="rounded=1;whiteSpace=wrap;html=1;" parent="1" vertex="1">
                    <mxGeometry x="414" y="380" width="120" height="60" as="geometry"/>
                </mxCell>
                <mxCell id="zlzfCAHE0enUOb_k5zOW-33" style="edgeStyle=none;html=1;" parent="1" source="14" target="6" edge="1">
                    <mxGeometry relative="1" as="geometry">
                        <mxPoint x="600" y="600" as="sourcePoint"/>
                    </mxGeometry>
                </mxCell>
                <mxCell id="11" style="edgeStyle=none;html=1;" parent="1" source="6" target="10" edge="1">
                    <mxGeometry relative="1" as="geometry"/>
                </mxCell>
                <mxCell id="6" value="Publisher" style="rounded=1;whiteSpace=wrap;html=1;" parent="1" vertex="1">
                    <mxGeometry x="510" y="630" width="120" height="60" as="geometry"/>
                </mxCell>
                <mxCell id="10" value="API" style="rounded=1;whiteSpace=wrap;html=1;" parent="1" vertex="1">
                    <mxGeometry x="510" y="725" width="120" height="60" as="geometry"/>
                </mxCell>
                <mxCell id="zlzfCAHE0enUOb_k5zOW-13" value="DB" style="shape=datastore;whiteSpace=wrap;html=1;" parent="1" vertex="1">
                    <mxGeometry x="540" y="830" width="60" height="60" as="geometry"/>
                </mxCell>
                <mxCell id="zlzfCAHE0enUOb_k5zOW-18" value="" style="endArrow=classic;startArrow=classic;html=1;" parent="1" source="zlzfCAHE0enUOb_k5zOW-13" target="10" edge="1">
                    <mxGeometry width="50" height="50" relative="1" as="geometry">
                        <mxPoint x="1000" y="580" as="sourcePoint"/>
                        <mxPoint x="1080" y="580" as="targetPoint"/>
                    </mxGeometry>
                </mxCell>
                <mxCell id="zlzfCAHE0enUOb_k5zOW-20" value="Collector" style="rounded=1;whiteSpace=wrap;html=1;" parent="1" vertex="1">
                    <mxGeometry x="414" y="210" width="120" height="60" as="geometry"/>
                </mxCell>
                <mxCell id="zlzfCAHE0enUOb_k5zOW-32" style="edgeStyle=none;html=1;" parent="1" source="zlzfCAHE0enUOb_k5zOW-22" target="2" edge="1">
                    <mxGeometry relative="1" as="geometry"/>
                </mxCell>
                <mxCell id="zlzfCAHE0enUOb_k5zOW-22" value="Storage" style="shape=cylinder3;whiteSpace=wrap;html=1;boundedLbl=1;backgroundOutline=1;size=15;" parent="1" vertex="1">
                    <mxGeometry x="550" y="280" width="60" height="70" as="geometry"/>
                </mxCell>
                <mxCell id="zlzfCAHE0enUOb_k5zOW-27" value="" style="endArrow=classic;html=1;entryX=0.15;entryY=0.386;entryDx=0;entryDy=0;entryPerimeter=0;" parent="1" source="zlzfCAHE0enUOb_k5zOW-20" target="zlzfCAHE0enUOb_k5zOW-22" edge="1">
                    <mxGeometry relative="1" as="geometry">
                        <mxPoint x="980" y="640" as="sourcePoint"/>
                        <mxPoint x="1080" y="640" as="targetPoint"/>
                    </mxGeometry>
                </mxCell>
                <mxCell id="zlzfCAHE0enUOb_k5zOW-28" value="File" style="edgeLabel;resizable=0;html=1;align=center;verticalAlign=middle;" parent="zlzfCAHE0enUOb_k5zOW-27" connectable="0" vertex="1">
                    <mxGeometry relative="1" as="geometry"/>
                </mxCell>
                <mxCell id="zlzfCAHE0enUOb_k5zOW-29" value="File Key" style="endArrow=classic;html=1;" parent="1" source="zlzfCAHE0enUOb_k5zOW-20" target="16" edge="1">
                    <mxGeometry relative="1" as="geometry">
                        <mxPoint x="980" y="640" as="sourcePoint"/>
                        <mxPoint x="400" y="290" as="targetPoint"/>
                    </mxGeometry>
                </mxCell>
                <mxCell id="zlzfCAHE0enUOb_k5zOW-37" value="" style="shape=link;html=1;exitX=0.5;exitY=0;exitDx=0;exitDy=0;entryX=0.5;entryY=1;entryDx=0;entryDy=0;" parent="1" source="zlzfCAHE0enUOb_k5zOW-20" target="zlzfCAHE0enUOb_k5zOW-39" edge="1">
                    <mxGeometry width="100" relative="1" as="geometry">
                        <mxPoint x="980" y="600" as="sourcePoint"/>
                        <mxPoint x="1100" y="350" as="targetPoint"/>
                    </mxGeometry>
                </mxCell>
                <mxCell id="zlzfCAHE0enUOb_k5zOW-39" value="Source Data" style="shape=datastore;whiteSpace=wrap;html=1;" parent="1" vertex="1">
                    <mxGeometry x="444" y="100" width="60" height="60" as="geometry"/>
                </mxCell>
                <mxCell id="zlzfCAHE0enUOb_k5zOW-77" style="edgeStyle=none;html=1;" parent="1" source="zlzfCAHE0enUOb_k5zOW-49" target="zlzfCAHE0enUOb_k5zOW-71" edge="1">
                    <mxGeometry relative="1" as="geometry"/>
                </mxCell>
                <mxCell id="zlzfCAHE0enUOb_k5zOW-49" value="Manager" style="rounded=1;whiteSpace=wrap;html=1;" parent="1" vertex="1">
                    <mxGeometry x="200" y="530" width="120" height="60" as="geometry"/>
                </mxCell>
                <mxCell id="zlzfCAHE0enUOb_k5zOW-51" value="DB" style="shape=datastore;whiteSpace=wrap;html=1;" parent="1" vertex="1">
                    <mxGeometry x="80" y="380" width="60" height="60" as="geometry"/>
                </mxCell>
                <mxCell id="zlzfCAHE0enUOb_k5zOW-53" value="" style="endArrow=classic;startArrow=classic;html=1;exitX=0;exitY=0.5;exitDx=0;exitDy=0;" parent="1" source="zlzfCAHE0enUOb_k5zOW-71" target="zlzfCAHE0enUOb_k5zOW-51" edge="1">
                    <mxGeometry width="50" height="50" relative="1" as="geometry">
                        <mxPoint x="290" y="690" as="sourcePoint"/>
                        <mxPoint x="680" y="580" as="targetPoint"/>
                    </mxGeometry>
                </mxCell>
                <mxCell id="zlzfCAHE0enUOb_k5zOW-65" style="edgeStyle=none;html=1;exitX=1;exitY=0.5;exitDx=0;exitDy=0;" parent="1" source="16" target="2" edge="1">
                    <mxGeometry relative="1" as="geometry">
                        <mxPoint x="427.75" y="350" as="sourcePoint"/>
                    </mxGeometry>
                </mxCell>
                <mxCell id="12" style="edgeStyle=none;html=1;entryX=0.5;entryY=1;entryDx=0;entryDy=0;" parent="1" source="zlzfCAHE0enUOb_k5zOW-71" target="16" edge="1">
                    <mxGeometry relative="1" as="geometry">
                        <mxPoint x="350" y="320" as="targetPoint"/>
                    </mxGeometry>
                </mxCell>
                <mxCell id="zlzfCAHE0enUOb_k5zOW-71" value="Manager API" style="rounded=1;whiteSpace=wrap;html=1;" parent="1" vertex="1">
                    <mxGeometry x="200" y="380" width="120" height="60" as="geometry"/>
                </mxCell>
                <mxCell id="zlzfCAHE0enUOb_k5zOW-73" value="" style="edgeStyle=orthogonalEdgeStyle;startArrow=none;endArrow=none;rounded=0;targetPortConstraint=eastwest;sourcePortConstraint=northsouth;entryX=0.5;entryY=0;entryDx=0;entryDy=0;" parent="1" source="2" target="14" edge="1">
                    <mxGeometry relative="1" as="geometry">
                        <mxPoint x="410" y="620" as="sourcePoint"/>
                        <Array as="points">
                            <mxPoint x="480" y="490"/>
                            <mxPoint x="570" y="490"/>
                        </Array>
                        <mxPoint x="600" y="570" as="targetPoint"/>
                    </mxGeometry>
                </mxCell>
                <mxCell id="zlzfCAHE0enUOb_k5zOW-76" style="edgeStyle=none;html=1;entryX=1;entryY=0.5;entryDx=0;entryDy=0;exitX=0;exitY=0.5;exitDx=0;exitDy=0;" parent="1" source="15" target="zlzfCAHE0enUOb_k5zOW-49" edge="1">
                    <mxGeometry relative="1" as="geometry">
                        <mxPoint x="410" y="510" as="sourcePoint"/>
                    </mxGeometry>
                </mxCell>
                <mxCell id="14" value="File Data Queue" style="rounded=0;whiteSpace=wrap;html=1;" parent="1" vertex="1">
                    <mxGeometry x="510" y="530" width="120" height="60" as="geometry"/>
                </mxCell>
                <mxCell id="15" value="File Result Queue" style="rounded=0;whiteSpace=wrap;html=1;" parent="1" vertex="1">
                    <mxGeometry x="350" y="530" width="120" height="60" as="geometry"/>
                </mxCell>
                <mxCell id="16" value="Pending Files Queue" style="rounded=0;whiteSpace=wrap;html=1;" parent="1" vertex="1">
                    <mxGeometry x="280" y="290" width="120" height="60" as="geometry"/>
                </mxCell>
                <mxCell id="17" value="" style="edgeStyle=orthogonalEdgeStyle;startArrow=none;endArrow=none;rounded=0;targetPortConstraint=eastwest;sourcePortConstraint=northsouth;exitX=0.5;exitY=1;exitDx=0;exitDy=0;" parent="1" source="2" target="15" edge="1">
                    <mxGeometry relative="1" as="geometry">
                        <mxPoint x="360" y="440" as="sourcePoint"/>
                        <Array as="points">
                            <mxPoint x="480" y="440"/>
                            <mxPoint x="480" y="490"/>
                            <mxPoint x="410" y="490"/>
                        </Array>
                        <mxPoint x="486" y="570" as="targetPoint"/>
                    </mxGeometry>
                </mxCell>
            </root>
        </mxGraphModel>
    </diagram>
    <diagram name="Collector" id="PYRVzbf0cyE7yXQet1s9">
        <mxGraphModel dx="1047" dy="782" grid="1" gridSize="10" guides="1" tooltips="1" connect="1" arrows="1" fold="1" page="1" pageScale="1" pageWidth="827" pageHeight="1169" math="0" shadow="0">
            <root>
                <mxCell id="7tcr4nle30jzqNTr1Fo6-0"/>
                <mxCell id="7tcr4nle30jzqNTr1Fo6-1" parent="7tcr4nle30jzqNTr1Fo6-0"/>
                <mxCell id="7tcr4nle30jzqNTr1Fo6-9" value="Collector" style="rounded=1;whiteSpace=wrap;html=1;" parent="7tcr4nle30jzqNTr1Fo6-1" vertex="1">
                    <mxGeometry x="270" y="100" width="120" height="60" as="geometry"/>
                </mxCell>
                <mxCell id="7tcr4nle30jzqNTr1Fo6-11" value="Storage" style="shape=cylinder3;whiteSpace=wrap;html=1;boundedLbl=1;backgroundOutline=1;size=15;" parent="7tcr4nle30jzqNTr1Fo6-1" vertex="1">
                    <mxGeometry x="480" y="80" width="60" height="80" as="geometry"/>
                </mxCell>
                <mxCell id="7tcr4nle30jzqNTr1Fo6-12" value="" style="endArrow=classic;html=1;entryX=0;entryY=0;entryDx=0;entryDy=45;entryPerimeter=0;" parent="7tcr4nle30jzqNTr1Fo6-1" source="7tcr4nle30jzqNTr1Fo6-9" target="7tcr4nle30jzqNTr1Fo6-11" edge="1">
                    <mxGeometry relative="1" as="geometry">
                        <mxPoint x="980" y="640" as="sourcePoint"/>
                        <mxPoint x="1080" y="640" as="targetPoint"/>
                    </mxGeometry>
                </mxCell>
                <mxCell id="7tcr4nle30jzqNTr1Fo6-13" value="File" style="edgeLabel;resizable=0;html=1;align=center;verticalAlign=middle;" parent="7tcr4nle30jzqNTr1Fo6-12" connectable="0" vertex="1">
                    <mxGeometry relative="1" as="geometry"/>
                </mxCell>
                <mxCell id="7tcr4nle30jzqNTr1Fo6-15" value="" style="shape=link;html=1;exitX=0.5;exitY=0;exitDx=0;exitDy=0;entryX=0.5;entryY=1;entryDx=0;entryDy=0;" parent="7tcr4nle30jzqNTr1Fo6-1" source="7tcr4nle30jzqNTr1Fo6-9" target="7tcr4nle30jzqNTr1Fo6-16" edge="1">
                    <mxGeometry width="100" relative="1" as="geometry">
                        <mxPoint x="980" y="600" as="sourcePoint"/>
                        <mxPoint x="1100" y="350" as="targetPoint"/>
                    </mxGeometry>
                </mxCell>
                <mxCell id="7tcr4nle30jzqNTr1Fo6-16" value="File Server" style="shape=datastore;whiteSpace=wrap;html=1;" parent="7tcr4nle30jzqNTr1Fo6-1" vertex="1">
                    <mxGeometry x="300" width="60" height="70" as="geometry"/>
                </mxCell>
                <mxCell id="7tcr4nle30jzqNTr1Fo6-24" value="Published with Success" style="edgeStyle=orthogonalEdgeStyle;startArrow=none;endArrow=none;rounded=0;targetPortConstraint=eastwest;sourcePortConstraint=northsouth;entryX=0.5;entryY=0;entryDx=0;entryDy=0;" parent="7tcr4nle30jzqNTr1Fo6-1" source="7tcr4nle30jzqNTr1Fo6-9" target="7tcr4nle30jzqNTr1Fo6-27" edge="1">
                    <mxGeometry x="0.6522" relative="1" as="geometry">
                        <mxPoint x="330" y="270" as="sourcePoint"/>
                        <Array as="points">
                            <mxPoint x="330" y="200"/>
                            <mxPoint x="220" y="200"/>
                        </Array>
                        <mxPoint x="330" y="500" as="targetPoint"/>
                        <mxPoint as="offset"/>
                    </mxGeometry>
                </mxCell>
                <mxCell id="7tcr4nle30jzqNTr1Fo6-35" style="edgeStyle=none;html=1;" parent="7tcr4nle30jzqNTr1Fo6-1" source="7tcr4nle30jzqNTr1Fo6-27" target="7tcr4nle30jzqNTr1Fo6-36" edge="1">
                    <mxGeometry relative="1" as="geometry">
                        <mxPoint x="250" y="440" as="targetPoint"/>
                    </mxGeometry>
                </mxCell>
                <mxCell id="7tcr4nle30jzqNTr1Fo6-27" value="Send Broker Event with fileKey" style="rounded=0;whiteSpace=wrap;html=1;" parent="7tcr4nle30jzqNTr1Fo6-1" vertex="1">
                    <mxGeometry x="160" y="280" width="120" height="60" as="geometry"/>
                </mxCell>
                <mxCell id="7tcr4nle30jzqNTr1Fo6-34" value="Send Broker Event with filePath" style="rounded=0;whiteSpace=wrap;html=1;" parent="7tcr4nle30jzqNTr1Fo6-1" vertex="1">
                    <mxGeometry x="430" y="280" width="120" height="60" as="geometry"/>
                </mxCell>
                <mxCell id="7tcr4nle30jzqNTr1Fo6-36" value="Delete file from Fileserver" style="rounded=0;whiteSpace=wrap;html=1;" parent="7tcr4nle30jzqNTr1Fo6-1" vertex="1">
                    <mxGeometry x="160" y="390" width="120" height="60" as="geometry"/>
                </mxCell>
                <mxCell id="7tcr4nle30jzqNTr1Fo6-37" value="Failed to publish" style="edgeStyle=orthogonalEdgeStyle;startArrow=none;endArrow=none;rounded=0;targetPortConstraint=eastwest;sourcePortConstraint=northsouth;entryX=0.575;entryY=0;entryDx=0;entryDy=0;exitX=0.5;exitY=1;exitDx=0;exitDy=0;entryPerimeter=0;" parent="7tcr4nle30jzqNTr1Fo6-1" source="7tcr4nle30jzqNTr1Fo6-9" target="7tcr4nle30jzqNTr1Fo6-34" edge="1">
                    <mxGeometry x="0.7232" relative="1" as="geometry">
                        <mxPoint x="340" y="170" as="sourcePoint"/>
                        <Array as="points">
                            <mxPoint x="330" y="200"/>
                            <mxPoint x="499" y="200"/>
                        </Array>
                        <mxPoint x="260" y="310" as="targetPoint"/>
                        <mxPoint as="offset"/>
                    </mxGeometry>
                </mxCell>
            </root>
        </mxGraphModel>
    </diagram>
</mxfile>